<svg width="512" height="512" xmlns="http://www.w3.org/2000/svg" preserveAspectRatio="xMidYMid">

 <g>
  <title>background</title>
  <rect fill="none" id="canvas_background" height="402" width="582" y="-1" x="-1"/>
 </g>
 <g>
  <title>Layer 1</title>
  <path fill-rule="evenodd" fill="#e3872d" id="svg_1" d="m256,512c-141.385,0 -256,-114.615 -256,-256c0,-141.385 114.615,-256 256,-256c141.385,0 256,114.615 256,256c0,141.385 -114.615,256 -256,256zm109.251,-326.632c0.574,-3.18 1.132,-7.674 1.671,-13.464c0.535,-5.798 0.328,-12.5 -0.609,-20.093c-0.93,-7.594 -2.687,-15.341 -5.265,-23.248l-2,-0.455c-1.328,-0.312 -3.511,-0.21 -6.534,0.303c-3.015,0.51 -6.549,1.435 -10.588,2.77c-4.051,1.336 -9.264,3.98 -15.67,7.934c-6.401,3.94 -13.15,8.948 -20.262,15.001c-12.096,-4.209 -28.749,-8.608 -49.993,-8.608c-21.239,0 -37.947,4.399 -50.129,8.608c-7.105,-6.053 -13.877,-11.035 -20.333,-14.929c-6.433,-3.896 -11.588,-6.567 -15.463,-8.006c-3.862,-1.434 -7.436,-2.358 -10.733,-2.77c-3.28,-0.411 -5.389,-0.539 -6.327,-0.384c-0.937,0.152 -1.624,0.327 -2.062,0.536c-2.578,7.907 -4.362,15.654 -5.335,23.248c-0.976,7.593 -1.203,14.263 -0.664,20.013c0.535,5.745 1.109,10.26 1.734,13.544c0.617,3.288 1.328,6.102 2.129,8.466c-13.861,18.368 -20.798,40.383 -20.798,66.034c0,14.263 1.062,27.2 3.199,38.792c2.128,11.602 5.128,21.653 8.999,30.172c3.862,8.519 8.752,15.983 14.661,22.398c5.921,6.411 12.334,11.7 19.271,15.863c6.924,4.155 14.861,7.51 23.797,10.083c8.925,2.559 18.013,4.355 27.258,5.387c9.249,1.023 19.423,1.537 30.531,1.537c11.104,0 21.309,-0.514 30.589,-1.537c9.295,-1.032 18.403,-2.828 27.332,-5.387c8.928,-2.573 16.883,-5.928 23.859,-10.083c6.984,-4.163 13.448,-9.452 19.408,-15.854c5.948,-6.415 10.861,-13.888 14.724,-22.407c3.862,-8.519 6.886,-18.57 9.069,-30.163c2.168,-11.601 3.265,-24.538 3.265,-38.801c0,-25.553 -6.936,-47.562 -20.798,-66.034c0.801,-2.462 1.488,-5.29 2.067,-8.466zm-24.926,152.202c-2.711,5.15 -6.504,9.497 -11.397,13.048c-4.89,3.547 -9.623,6.281 -14.201,8.233c-4.574,1.948 -10.486,3.459 -17.732,4.544c-7.241,1.081 -13.732,1.751 -19.47,1.978c-5.725,0.228 -12.951,0.34 -21.661,0.34c-8.702,0 -15.908,-0.112 -21.594,-0.34c-5.691,-0.227 -12.15,-0.897 -19.399,-1.978c-7.238,-1.085 -13.151,-2.596 -17.724,-4.544c-4.586,-1.952 -9.304,-4.686 -14.197,-8.233c-4.89,-3.551 -8.69,-7.898 -11.409,-13.048c-2.695,-5.142 -4.952,-11.53 -6.725,-19.129c-1.778,-7.612 -2.664,-16.278 -2.664,-26.004c0,-16.585 5.335,-31.636 15.998,-45.127c3.198,-4.119 6.909,-7.237 11.127,-9.354c4.221,-2.122 9.021,-3.319 14.404,-3.601c5.374,-0.285 10.502,-0.232 15.388,0.161c4.89,0.402 10.936,0.952 18.134,1.64c7.206,0.683 13.424,1.023 18.661,1.023c5.25,0 11.472,-0.34 18.662,-1.023c7.206,-0.688 13.255,-1.238 18.142,-1.64c4.885,-0.393 10.013,-0.446 15.388,-0.161c5.386,0.282 10.202,1.479 14.463,3.601c4.273,2.117 7.998,5.235 11.205,9.354c10.671,13.491 15.998,28.542 15.998,45.127c0,9.726 -0.895,18.392 -2.672,26.004c-1.773,7.599 -4.015,13.987 -6.725,19.129zm-132.317,-81.553c-8.83,0 -15.997,12.288 -15.997,27.447c0,15.161 7.167,27.446 15.997,27.446c8.831,0 15.998,-12.285 15.998,-27.446c0,-15.159 -7.167,-27.447 -15.998,-27.447zm62.518,74.865c-1.952,-2.233 -5.105,-2.233 -7.053,0c-3.058,3.485 -5.503,5.187 -7.472,5.187c-1.968,0 -4.414,-1.702 -7.472,-5.187c-1.952,-2.242 -5.104,-2.242 -7.053,0c-1.96,2.234 -1.96,5.857 0,8.077c4.948,5.682 9.733,8.51 14.525,8.51c4.792,0 9.573,-2.828 14.525,-8.501c1.961,-2.229 1.961,-5.852 0,-8.086zm33.468,-74.865c-8.831,0 -15.998,12.288 -15.998,27.447c0,15.161 7.167,27.446 15.998,27.446c8.831,0 15.998,-12.285 15.998,-27.446c0,-15.159 -7.167,-27.447 -15.998,-27.447z" class="cls-1"/>
 </g>
</svg>